# xmcd
#
# Track frame offsets:
#	150
#	13724
#	24410
#	32394
#	38231
#	47389
#	55977
#	67335
#	77608
#	87941
#	103717
#	113721
#	122898
#	135827
#	145477
#	156117
#	170802
#	181529
#	192331
#	204604
#	211425
#
# Disc length: 2863 seconds
#
# Revision: 14
# Processed by: cddbd v1.5.2PL0 Copyright (c) Steve Scherf et al.
# Submitted via: Jack! The Knife 20 Magnifico
#
DISCID=1f0b2d15
DTITLE=La Polla Records - Toda La Puta Vida Igual
DYEAR=1999
DGENRE=Punk
TTITLE0=Ya No Quiero Ser Yo
TTITLE1=Tumba 37
TTITLE2=Deja A Los Niños
TTITLE3=Shanti
TTITLE4=Igual Para Todos
TTITLE5=Puedes Ser Idiota
TTITLE6=No Aburras
TTITLE7=Mundo Cabrón
TTITLE8=Basura
TTITLE9=Pastelarium
TTITLE10=Maigenerasion
TTITLE11=Guaschibo
TTITLE12=Está Todo Muy Mal
TTITLE13=Chisourray
TTITLE14=Ingenua
TTITLE15=Día Positivo
TTITLE16=La Gamberra
TTITLE17=Nadie Llorará por Ti
TTITLE18=Que Turututu, Ay Que Tururu
TTITLE19=Toda La Puta Vida Igual
TTITLE20=La Democracia Funciona
EXTD=
EXTT0=
EXTT1=
EXTT2=
EXTT3=
EXTT4=
EXTT5=
EXTT6=
EXTT7=
EXTT8=
EXTT9=
EXTT10=
EXTT11=
EXTT12=
EXTT13=
EXTT14=
EXTT15=
EXTT16=
EXTT17=
EXTT18=
EXTT19=
EXTT20=
PLAYORDER=
